<svg width="100" height="69" viewBox="0 0 100 69" fill="none" xmlns="http://www.w3.org/2000/svg">
<path d="M15.332 32.8164L14.8926 31.0586L14.0137 31.5469L8.93555 36.625C8.90299 36.6576 8.78906 36.625 8.59375 36.5273C8.36589 36.3971 8.20312 36.2995 8.10547 36.2344C8.04036 36.1693 7.95898 36.0879 7.86133 35.9902C7.73112 35.86 7.66602 35.7786 7.66602 35.7461V35.5508C7.66602 35.3555 7.8125 35.0462 8.10547 34.623C8.36589 34.1999 8.72396 33.7279 9.17969 33.207C9.63542 32.6862 10.14 32.1491 10.6934 31.5957C11.2793 31.0098 11.849 30.5052 12.4023 30.082C12.9883 29.6263 13.5417 29.252 14.0625 28.959C14.5833 28.666 15.0228 28.5195 15.3809 28.5195C15.9993 28.5195 16.4551 28.8125 16.748 29.3984C17.0736 29.9518 17.2852 30.6191 17.3828 31.4004C17.513 32.1491 17.5618 32.9141 17.5293 33.6953C17.4967 34.444 17.4805 34.9974 17.4805 35.3555C17.5781 35.1927 17.7897 34.916 18.1152 34.5254C18.4408 34.1022 18.7826 33.6628 19.1406 33.207C19.4987 32.7188 19.8405 32.2793 20.166 31.8887C20.4915 31.498 20.7194 31.2214 20.8496 31.0586C20.9473 30.9609 21.1589 30.7331 21.4844 30.375C21.8424 29.9844 22.2168 29.5938 22.6074 29.2031C23.0306 28.7799 23.4701 28.4219 23.9258 28.1289C24.3815 27.8034 24.7721 27.6406 25.0977 27.6406C25.6836 27.6406 26.1068 27.8197 26.3672 28.1777C26.6276 28.5033 26.7904 28.9102 26.8555 29.3984C26.9531 29.8867 26.9857 30.4076 26.9531 30.9609C26.9206 31.4818 26.9043 31.9212 26.9043 32.2793C26.9043 33.5163 26.8229 34.737 26.6602 35.9414C26.4974 37.1458 26.416 38.3828 26.416 39.6523V40.043C27.0996 39.2617 27.6855 38.3991 28.1738 37.4551C28.6947 36.5111 29.2155 35.5833 29.7363 34.6719C30.2572 33.7279 30.8105 32.8327 31.3965 31.9863C32.015 31.14 32.7637 30.4238 33.6426 29.8379C33.7077 29.8053 33.8053 29.7891 33.9355 29.7891C34.0983 29.7565 34.2122 29.7402 34.2773 29.7402C34.6354 29.7402 34.8958 29.8542 35.0586 30.082C35.2539 30.2773 35.3678 30.5378 35.4004 30.8633C35.4655 31.1562 35.4818 31.4655 35.4492 31.791C35.4167 32.1165 35.4004 32.3932 35.4004 32.6211C35.4004 34.0208 35.319 35.4043 35.1562 36.7715C34.9935 38.1061 34.9121 39.4733 34.9121 40.873C34.9121 41.6217 35.0749 42.11 35.4004 42.3379C35.7585 42.5658 36.3118 42.6797 37.0605 42.6797C37.4186 42.6797 37.7279 42.6309 37.9883 42.5332C38.2812 42.403 38.5579 42.2728 38.8184 42.1426C39.0788 41.9798 39.3392 41.8496 39.5996 41.752C39.8926 41.6217 40.2018 41.5566 40.5273 41.5566C40.5273 42.0449 40.3971 42.5007 40.1367 42.9238C39.8763 43.3145 39.5508 43.6562 39.1602 43.9492C38.7695 44.2096 38.3301 44.4212 37.8418 44.584C37.3535 44.7142 36.8978 44.7793 36.4746 44.7793C36.1165 44.7793 35.7422 44.7305 35.3516 44.6328C34.9935 44.5352 34.6517 44.3887 34.3262 44.1934C34.0332 43.9655 33.7728 43.6888 33.5449 43.3633C33.3496 43.0378 33.252 42.6471 33.252 42.1914V32.8164C32.8939 33.0768 32.487 33.5488 32.0312 34.2324C31.6081 34.916 31.1523 35.6973 30.6641 36.5762C30.2083 37.4551 29.7363 38.3828 29.248 39.3594C28.7923 40.3359 28.3366 41.2148 27.8809 41.9961C27.4251 42.7773 26.9857 43.4447 26.5625 43.998C26.1393 44.5189 25.7487 44.7793 25.3906 44.7793C25.0326 44.7793 24.7721 44.6165 24.6094 44.291C24.4466 43.9655 24.3327 43.6074 24.2676 43.2168C24.235 42.7936 24.2188 42.403 24.2188 42.0449C24.2188 41.6868 24.2188 41.4427 24.2188 41.3125C24.2188 40.5312 24.2676 39.75 24.3652 38.9688C24.4629 38.1875 24.5768 37.4062 24.707 36.625C24.8372 35.8112 24.9512 35.0137 25.0488 34.2324C25.1465 33.4512 25.1953 32.6699 25.1953 31.8887C25.1953 31.791 25.1953 31.6445 25.1953 31.4492C25.1953 31.2539 25.1628 31.0749 25.0977 30.9121C25.0651 30.7168 25 30.554 24.9023 30.4238C24.8047 30.2611 24.6745 30.1797 24.5117 30.1797C24.4792 30.1797 24.4466 30.196 24.4141 30.2285C24.4141 30.2285 24.3978 30.2285 24.3652 30.2285C24.3652 30.2611 24.3327 30.2773 24.2676 30.2773C24.235 30.2773 24.1699 30.3262 24.0723 30.4238C23.9746 30.5215 23.9095 30.6029 23.877 30.668C23.5189 31.1237 23.0469 31.7096 22.4609 32.4258C21.875 33.1419 21.3053 33.8418 20.752 34.5254C20.1986 35.209 19.7266 35.7949 19.3359 36.2832C18.9453 36.7715 18.7337 37.0156 18.7012 37.0156C18.6035 37.2109 18.4245 37.6829 18.1641 38.4316C17.9362 39.1803 17.6758 39.9941 17.3828 40.873C17.1224 41.7194 16.8783 42.5332 16.6504 43.3145C16.4225 44.0632 16.2598 44.5352 16.1621 44.7305C15.9993 45.2513 15.7878 45.6094 15.5273 45.8047C15.2669 46 14.8763 46.0977 14.3555 46.0977C14.3555 44.9909 14.4043 43.9004 14.502 42.8262C14.5996 41.752 14.7135 40.6777 14.8438 39.6035C14.974 38.4967 15.0879 37.4062 15.1855 36.332C15.2832 35.2253 15.332 34.1022 15.332 32.9629V32.8164ZM41.4062 57.3281C41.4062 56.2214 41.4551 55.082 41.5527 53.9102C41.6504 52.7383 41.7643 51.5501 41.8945 50.3457C42.0573 49.1738 42.2363 48.002 42.4316 46.8301C42.6595 45.6582 42.8874 44.5352 43.1152 43.4609L40.1367 46.3906C40.1042 46.4232 40.0879 46.4395 40.0879 46.4395C40.0553 46.472 40.0065 46.4883 39.9414 46.4883C39.8763 46.4883 39.8275 46.472 39.7949 46.4395C39.7949 46.4395 39.7624 46.4232 39.6973 46.3906C39.6647 46.3906 39.5833 46.3255 39.4531 46.1953C39.3555 46.0651 39.2904 46 39.2578 46C39.2253 46 39.1276 46.0163 38.9648 46.0488C38.8021 46.0814 38.623 46.1139 38.4277 46.1465C38.2324 46.2116 38.0534 46.2604 37.8906 46.293C37.6953 46.3581 37.5977 46.3906 37.5977 46.3906H37.3535C37.1582 46.3906 37.028 46.3418 36.9629 46.2441C36.8652 46.179 36.8001 46.0814 36.7676 45.9512C36.735 45.821 36.7188 45.6745 36.7188 45.5117C36.7188 45.349 36.7188 45.2025 36.7188 45.0723C36.7188 44.7467 36.7513 44.4375 36.8164 44.1445C36.849 43.8516 37.1094 43.6237 37.5977 43.4609C37.5977 43.4609 37.6953 43.4609 37.8906 43.4609C38.0534 43.4609 38.2324 43.4609 38.4277 43.4609C38.623 43.4609 38.8021 43.4609 38.9648 43.4609C39.1276 43.4609 39.2253 43.4609 39.2578 43.4609C39.681 43.3633 40.2181 43.054 40.8691 42.5332C41.5527 41.9798 42.2038 41.3451 42.8223 40.6289C43.4408 39.8802 43.9453 39.1152 44.3359 38.334C44.7591 37.5202 44.9219 36.8203 44.8242 36.2344C44.9219 35.8438 45.1009 35.1764 45.3613 34.2324C45.6543 33.2559 45.9473 32.2142 46.2402 31.1074C46.5658 30.0007 46.875 28.9753 47.168 28.0312C47.4609 27.0547 47.6725 26.3711 47.8027 25.9805C47.8678 25.8177 47.9818 25.5085 48.1445 25.0527C48.3398 24.5645 48.5677 24.0762 48.8281 23.5879C49.0885 23.0671 49.3978 22.6113 49.7559 22.2207C50.1465 21.8301 50.5697 21.6348 51.0254 21.6348C51.3184 21.6348 51.5299 21.7161 51.6602 21.8789C51.8229 22.0417 51.9368 22.237 52.002 22.4648C52.0671 22.6927 52.0996 22.9368 52.0996 23.1973C52.0996 23.4577 52.0996 23.6693 52.0996 23.832C52.0996 23.9622 52.0996 24.1901 52.0996 24.5156C52.0996 24.8411 52.0833 25.0527 52.0508 25.1504C51.9206 25.5085 51.6927 26.1595 51.3672 27.1035C51.0742 28.0475 50.7487 29.0404 50.3906 30.082C50.0326 31.0911 49.6908 32.0677 49.3652 33.0117C49.0397 33.9232 48.7956 34.5742 48.6328 34.9648C48.6003 35.0625 48.5189 35.2253 48.3887 35.4531C48.291 35.681 48.1771 35.9414 48.0469 36.2344C47.9167 36.4948 47.7702 36.7552 47.6074 37.0156C47.4772 37.2435 47.3958 37.4062 47.3633 37.5039H47.5586H47.8027C47.9329 37.4714 48.2096 37.3737 48.6328 37.2109C49.0885 37.0156 49.5768 36.8203 50.0977 36.625C50.651 36.4297 51.1556 36.2507 51.6113 36.0879C52.0671 35.9251 52.36 35.8112 52.4902 35.7461C52.5228 35.7461 52.653 35.7461 52.8809 35.7461C53.1413 35.7135 53.3366 35.6973 53.4668 35.6973C54.6387 35.6973 55.6478 35.9414 56.4941 36.4297C57.373 36.8854 58.0729 37.5039 58.5938 38.2852C59.1471 39.0339 59.554 39.9128 59.8145 40.9219C60.0749 41.931 60.2051 42.9727 60.2051 44.0469C60.2051 44.4701 60.1725 45.0723 60.1074 45.8535C60.0423 46.6022 59.9284 47.4486 59.7656 48.3926C59.6354 49.3691 59.4727 50.362 59.2773 51.3711C59.082 52.4128 58.8542 53.3893 58.5938 54.3008C58.3333 55.2122 58.0404 56.026 57.7148 56.7422C57.3893 57.4909 57.0638 58.0443 56.7383 58.4023L51.6602 63.4805C51.3672 63.7734 51.0091 64.0013 50.5859 64.1641C50.1628 64.3594 49.7233 64.4896 49.2676 64.5547C48.8444 64.6523 48.4049 64.7174 47.9492 64.75C47.4935 64.7826 47.0866 64.7988 46.7285 64.7988C45.6217 64.7988 44.7266 64.5872 44.043 64.1641C43.3594 63.7734 42.8223 63.2363 42.4316 62.5527C42.041 61.8691 41.7643 61.0716 41.6016 60.1602C41.4714 59.2812 41.4062 58.3372 41.4062 57.3281ZM43.0664 56.9375C43.0664 57.7513 43.0827 58.5326 43.1152 59.2812C43.1478 60.0299 43.278 60.681 43.5059 61.2344C43.7663 61.7878 44.1569 62.2272 44.6777 62.5527C45.2311 62.9108 45.9961 63.0898 46.9727 63.0898C48.3398 63.0898 49.5768 62.7806 50.6836 62.1621C51.7904 61.5762 52.7669 60.7786 53.6133 59.7695C54.4596 58.7604 55.1921 57.6048 55.8105 56.3027C56.429 55.0332 56.9336 53.7148 57.3242 52.3477C57.7474 50.9805 58.0404 49.6296 58.2031 48.2949C58.3984 46.9603 58.4961 45.7559 58.4961 44.6816C58.4961 43.8353 58.4473 42.9889 58.3496 42.1426C58.2845 41.2637 58.0892 40.4824 57.7637 39.7988C57.4382 39.1152 56.9661 38.5618 56.3477 38.1387C55.7617 37.6829 54.9642 37.4551 53.9551 37.4551C52.2624 37.4551 50.8138 37.7643 49.6094 38.3828C48.4375 39.0013 47.4447 39.8151 46.6309 40.8242C45.8171 41.8333 45.1823 43.0052 44.7266 44.3398C44.2708 45.6745 43.9128 47.0579 43.6523 48.4902C43.4245 49.9225 43.2617 51.3711 43.1641 52.8359C43.099 54.3008 43.0664 55.668 43.0664 56.9375ZM49.0723 27.6406C49.0072 27.6406 48.9095 27.7871 48.7793 28.0801C48.6491 28.3405 48.5189 28.6823 48.3887 29.1055C48.291 29.4961 48.1771 29.9355 48.0469 30.4238C47.9167 30.8796 47.819 31.319 47.7539 31.7422C47.6888 32.1328 47.64 32.4583 47.6074 32.7188C47.6074 32.9792 47.64 33.1094 47.7051 33.1094C47.8027 33.1094 47.9004 32.9792 47.998 32.7188C48.0957 32.4583 48.2096 32.1328 48.3398 31.7422C48.4701 31.319 48.584 30.8796 48.6816 30.4238C48.8118 29.9355 48.9095 29.4961 48.9746 29.1055C49.0723 28.6823 49.1211 28.3405 49.1211 28.0801C49.1536 27.7871 49.1374 27.6406 49.0723 27.6406ZM66.0645 32.8164L65.625 31.0586L64.7461 31.5469L59.668 36.625C59.6354 36.6576 59.5215 36.625 59.3262 36.5273C59.0983 36.3971 58.9355 36.2995 58.8379 36.2344C58.7728 36.1693 58.6914 36.0879 58.5938 35.9902C58.4635 35.86 58.3984 35.7786 58.3984 35.7461V35.5508C58.3984 35.3555 58.5449 35.0462 58.8379 34.623C59.0983 34.1999 59.4564 33.7279 59.9121 33.207C60.3678 32.6862 60.8724 32.1491 61.4258 31.5957C62.0117 31.0098 62.5814 30.5052 63.1348 30.082C63.7207 29.6263 64.2741 29.252 64.7949 28.959C65.3158 28.666 65.7552 28.5195 66.1133 28.5195C66.7318 28.5195 67.1875 28.8125 67.4805 29.3984C67.806 29.9518 68.0176 30.6191 68.1152 31.4004C68.2454 32.1491 68.2943 32.9141 68.2617 33.6953C68.2292 34.444 68.2129 34.9974 68.2129 35.3555C68.3105 35.1927 68.5221 34.916 68.8477 34.5254C69.1732 34.1022 69.515 33.6628 69.873 33.207C70.2311 32.7188 70.5729 32.2793 70.8984 31.8887C71.224 31.498 71.4518 31.2214 71.582 31.0586C71.6797 30.9609 71.8913 30.7331 72.2168 30.375C72.5749 29.9844 72.9492 29.5938 73.3398 29.2031C73.763 28.7799 74.2025 28.4219 74.6582 28.1289C75.1139 27.8034 75.5046 27.6406 75.8301 27.6406C76.416 27.6406 76.8392 27.8197 77.0996 28.1777C77.36 28.5033 77.5228 28.9102 77.5879 29.3984C77.6855 29.8867 77.7181 30.4076 77.6855 30.9609C77.653 31.4818 77.6367 31.9212 77.6367 32.2793C77.6367 33.5163 77.5553 34.737 77.3926 35.9414C77.2298 37.1458 77.1484 38.3828 77.1484 39.6523V40.043C77.832 39.2617 78.418 38.3991 78.9062 37.4551C79.4271 36.5111 79.9479 35.5833 80.4688 34.6719C80.9896 33.7279 81.543 32.8327 82.1289 31.9863C82.7474 31.14 83.4961 30.4238 84.375 29.8379C84.4401 29.8053 84.5378 29.7891 84.668 29.7891C84.8307 29.7565 84.9447 29.7402 85.0098 29.7402C85.3678 29.7402 85.6283 29.8542 85.791 30.082C85.9863 30.2773 86.1003 30.5378 86.1328 30.8633C86.1979 31.1562 86.2142 31.4655 86.1816 31.791C86.1491 32.1165 86.1328 32.3932 86.1328 32.6211C86.1328 34.0208 86.0514 35.4043 85.8887 36.7715C85.7259 38.1061 85.6445 39.4733 85.6445 40.873C85.6445 41.6217 85.8073 42.11 86.1328 42.3379C86.4909 42.5658 87.0443 42.6797 87.793 42.6797C88.151 42.6797 88.4603 42.6309 88.7207 42.5332C89.0137 42.403 89.2904 42.2728 89.5508 42.1426C89.8112 41.9798 90.0716 41.8496 90.332 41.752C90.625 41.6217 90.9342 41.5566 91.2598 41.5566C91.2598 42.0449 91.1296 42.5007 90.8691 42.9238C90.6087 43.3145 90.2832 43.6562 89.8926 43.9492C89.502 44.2096 89.0625 44.4212 88.5742 44.584C88.0859 44.7142 87.6302 44.7793 87.207 44.7793C86.849 44.7793 86.4746 44.7305 86.084 44.6328C85.7259 44.5352 85.3841 44.3887 85.0586 44.1934C84.7656 43.9655 84.5052 43.6888 84.2773 43.3633C84.082 43.0378 83.9844 42.6471 83.9844 42.1914V32.8164C83.6263 33.0768 83.2194 33.5488 82.7637 34.2324C82.3405 34.916 81.8848 35.6973 81.3965 36.5762C80.9408 37.4551 80.4688 38.3828 79.9805 39.3594C79.5247 40.3359 79.069 41.2148 78.6133 41.9961C78.1576 42.7773 77.7181 43.4447 77.2949 43.998C76.8717 44.5189 76.4811 44.7793 76.123 44.7793C75.765 44.7793 75.5046 44.6165 75.3418 44.291C75.179 43.9655 75.0651 43.6074 75 43.2168C74.9674 42.7936 74.9512 42.403 74.9512 42.0449C74.9512 41.6868 74.9512 41.4427 74.9512 41.3125C74.9512 40.5312 75 39.75 75.0977 38.9688C75.1953 38.1875 75.3092 37.4062 75.4395 36.625C75.5697 35.8112 75.6836 35.0137 75.7812 34.2324C75.8789 33.4512 75.9277 32.6699 75.9277 31.8887C75.9277 31.791 75.9277 31.6445 75.9277 31.4492C75.9277 31.2539 75.8952 31.0749 75.8301 30.9121C75.7975 30.7168 75.7324 30.554 75.6348 30.4238C75.5371 30.2611 75.4069 30.1797 75.2441 30.1797C75.2116 30.1797 75.179 30.196 75.1465 30.2285C75.1465 30.2285 75.1302 30.2285 75.0977 30.2285C75.0977 30.2611 75.0651 30.2773 75 30.2773C74.9674 30.2773 74.9023 30.3262 74.8047 30.4238C74.707 30.5215 74.6419 30.6029 74.6094 30.668C74.2513 31.1237 73.7793 31.7096 73.1934 32.4258C72.6074 33.1419 72.0378 33.8418 71.4844 34.5254C70.931 35.209 70.459 35.7949 70.0684 36.2832C69.6777 36.7715 69.4661 37.0156 69.4336 37.0156C69.3359 37.2109 69.1569 37.6829 68.8965 38.4316C68.6686 39.1803 68.4082 39.9941 68.1152 40.873C67.8548 41.7194 67.6107 42.5332 67.3828 43.3145C67.1549 44.0632 66.9922 44.5352 66.8945 44.7305C66.7318 45.2513 66.5202 45.6094 66.2598 45.8047C65.9993 46 65.6087 46.0977 65.0879 46.0977C65.0879 44.9909 65.1367 43.9004 65.2344 42.8262C65.332 41.752 65.446 40.6777 65.5762 39.6035C65.7064 38.4967 65.8203 37.4062 65.918 36.332C66.0156 35.2253 66.0645 34.1022 66.0645 32.9629V32.8164Z" fill="white"/>
</svg>
